<?xml version="1.0" encoding="UTF-8"?>
<svg id="Warstwa_1" data-name="Warstwa 1" xmlns="http://www.w3.org/2000/svg" xmlns:xlink="http://www.w3.org/1999/xlink" viewBox="0 0 2670.09 672.47">
  <defs>
    <style>
      .cls-1 {
        fill: none;
      }

      .cls-2 {
        fill: #1d1d1b;
      }

      .cls-3 {
        clip-path: url(#clippath);
      }
    </style>
    <clipPath id="clippath">
      <rect class="cls-1" x="-5.87" y="-1.57" width="2680.85" height="686.3"/>
    </clipPath>
  </defs>
  <g class="cls-3">
    <g>
      <g>
        <path class="cls-2" d="M1699.83,138.66c-7.5-3.34-17.41-5.74-25.23-5.63-6.69.22-17.61,2.35-29.57,12.19-20.78,17.11-24.63,41.94-8.56,61.45,6.74,8.18,12.83,11.09,22.9,11.78,11.47,1.11,22.2-1.9,32.92-4.92l27.4-7.77c16.68-4.76,32.68-8.42,48.75-6.86,19.51,1.89,34.03,10.54,46.47,25.65,31.88,38.72,24.49,88.12-13.29,119.22-13.85,11.41-33.5,22.82-59.64,20.58-18.68-1.52-36.9-10.81-50.1-21.07l17.48-24.96c10.64,9.72,23.46,15.02,34.62,16.39,16.64,1.61,29.11-4.42,39.81-13.23,28.64-23.58,25.33-55.19,7.97-76.28-7.78-9.44-17.35-15.3-30.61-16-10.64-.74-21.94,2.22-37.1,6.25l-26.14,6.74c-11.29,2.96-25.31,7.1-42.27,5.75-16.38-1.3-29.77-6.65-42.73-22.39-26.69-32.42-19.71-74.61,14.28-102.6,12.91-10.63,25.37-16.67,41.46-18.29,13.16-1.33,27.4,1.21,39.64,6.45l-8.47,27.57Z"/>
        <path class="cls-2" d="M1599.03,519.61c-4.17-7.07-10.84-14.78-17.28-19.23-5.57-3.7-15.7-8.31-31.16-7.23-26.85,1.87-44.4,19.85-42.64,45.08.74,10.57,4.01,16.48,11.82,22.88,8.7,7.57,19.18,11.34,29.66,15.1l26.83,9.57c16.34,5.81,31.5,12.11,43.68,22.71,14.79,12.87,21.6,28.33,22.96,47.86,3.49,50.03-31.21,85.97-80.02,89.37-17.9,1.25-40.53-.86-60.51-17.86-14.33-12.08-23.77-30.22-28.57-46.24l28.72-10.18c3.03,14.1,10.38,25.85,18.68,33.44,12.62,10.97,26.27,13.29,40.1,12.33,37.01-2.58,52.66-30.24,50.76-57.49-.85-12.2-5.25-22.53-15.64-30.79-8.23-6.78-19.15-10.93-33.84-16.44l-25.2-9.69c-10.91-4.14-24.73-8.91-37.76-19.85-12.59-10.57-20.38-22.7-21.8-43.03-2.92-41.9,27.26-72.2,71.18-75.26,16.68-1.16,30.33,1.15,44.38,9.16,11.49,6.56,21.61,16.89,28.54,28.26l-22.89,17.53Z"/>
        <path class="cls-2" d="M1678.83,338.46c-6.24-5.32-15.06-10.44-22.6-12.56-6.47-1.69-17.56-2.74-31.82,3.31-24.78,10.51-35.51,33.23-25.64,56.5,4.14,9.76,9.16,14.27,18.62,17.79,10.69,4.32,21.83,4.47,32.96,4.62l28.48.32c17.34.17,33.73,1.19,48.69,7.24,18.18,7.35,29.64,19.75,37.29,37.77,19.59,46.17-1.51,91.44-46.55,110.55-16.52,7.01-38.6,12.39-63.03,2.82-17.49-6.75-32.32-20.83-42.07-34.41l23.84-18.98c7.45,12.34,18.23,21.06,28.55,25.53,15.5,6.27,29.16,4.02,41.93-1.4,34.16-14.49,39.95-45.74,29.28-70.89-4.78-11.26-12.3-19.59-24.81-24.02-10-3.73-21.67-4.1-37.35-4.53l-26.98-.95c-11.67-.37-26.28-.37-42.16-6.47-15.34-5.89-26.66-14.82-34.62-33.59-16.4-38.66,2.26-77.14,42.8-94.34,15.39-6.53,29.05-8.79,44.94-5.78,13,2.46,25.93,8.93,36.19,17.43l-15.94,24.03Z"/>
        <path class="cls-2" d="M1651.39-49.74c-8.2-.26-18.29,1.26-25.49,4.32-6.11,2.73-15.42,8.83-22.77,22.47-12.77,23.69-6.96,48.13,15.3,60.13,9.33,5.03,16.07,5.42,25.66,2.25,11.04-3.31,19.83-10.15,28.62-17l22.43-17.55c13.65-10.71,27.07-20.15,42.54-24.78,18.78-5.62,35.49-3.11,52.72,6.18,44.15,23.8,55.97,72.33,32.75,115.4-8.52,15.79-22.39,33.79-47.44,41.59-17.87,5.66-38.25,3.93-54.35-.57l6.75-29.71c13.53,4.98,27.39,5.04,38.25,2.09,16.02-4.8,25.28-15.09,31.86-27.3,17.61-32.66,2.6-60.67-21.45-73.64-10.77-5.81-21.85-7.6-34.38-3.25-10.14,3.33-19.47,10.34-31.99,19.81l-21.66,16.12c-9.34,7.01-20.75,16.14-36.96,21.3-15.66,4.99-30.08,5.09-48.02-4.58-36.97-19.93-46.45-61.63-25.55-100.39,7.93-14.72,17.19-25.02,31.47-32.6,11.68-6.21,25.83-9.23,39.14-9.01l2.58,28.72Z"/>
      </g>
      <g>
        <path class="cls-2" d="M1997.83,151.1c-7.5-3.34-17.41-5.74-25.23-5.63-6.69.22-17.61,2.35-29.57,12.19-20.78,17.11-24.63,41.94-8.56,61.45,6.74,8.18,12.83,11.09,22.9,11.78,11.47,1.11,22.2-1.9,32.92-4.92l27.4-7.77c16.68-4.76,32.68-8.42,48.75-6.86,19.51,1.89,34.03,10.54,46.47,25.65,31.88,38.72,24.49,88.12-13.29,119.22-13.85,11.41-33.5,22.82-59.64,20.58-18.68-1.52-36.9-10.81-50.1-21.07l17.48-24.96c10.64,9.72,23.46,15.02,34.62,16.39,16.64,1.61,29.11-4.42,39.81-13.23,28.64-23.58,25.33-55.19,7.97-76.28-7.78-9.44-17.35-15.3-30.61-16-10.64-.74-21.94,2.22-37.1,6.25l-26.14,6.74c-11.29,2.96-25.31,7.1-42.27,5.75-16.38-1.3-29.77-6.65-42.73-22.39-26.69-32.42-19.71-74.61,14.28-102.6,12.91-10.63,25.37-16.67,41.46-18.29,13.16-1.33,27.4,1.21,39.64,6.45l-8.47,27.57Z"/>
        <path class="cls-2" d="M1897.03,532.04c-4.17-7.07-10.84-14.78-17.28-19.23-5.57-3.7-15.7-8.31-31.16-7.23-26.85,1.87-44.4,19.85-42.64,45.08.74,10.57,4.01,16.48,11.82,22.88,8.7,7.57,19.18,11.34,29.66,15.1l26.83,9.57c16.34,5.81,31.5,12.11,43.68,22.71,14.79,12.87,21.6,28.33,22.96,47.86,3.49,50.03-31.21,85.97-80.02,89.37-17.9,1.25-40.53-.86-60.51-17.86-14.33-12.08-23.77-30.22-28.57-46.24l28.72-10.18c3.03,14.1,10.38,25.85,18.68,33.44,12.62,10.97,26.27,13.29,40.1,12.33,37.01-2.58,52.66-30.24,50.76-57.49-.85-12.2-5.25-22.53-15.64-30.79-8.23-6.78-19.15-10.93-33.84-16.44l-25.2-9.69c-10.91-4.14-24.73-8.91-37.76-19.85-12.59-10.57-20.38-22.7-21.8-43.03-2.92-41.9,27.26-72.2,71.18-75.26,16.68-1.16,30.33,1.15,44.38,9.16,11.49,6.56,21.61,16.89,28.54,28.26l-22.89,17.53Z"/>
        <path class="cls-2" d="M1976.83,350.9c-6.24-5.32-15.06-10.44-22.6-12.56-6.47-1.69-17.56-2.74-31.82,3.31-24.78,10.51-35.51,33.23-25.64,56.5,4.14,9.76,9.16,14.27,18.62,17.79,10.69,4.32,21.83,4.47,32.96,4.62l28.48.32c17.34.17,33.73,1.19,48.69,7.24,18.18,7.35,29.64,19.75,37.29,37.77,19.59,46.17-1.51,91.44-46.55,110.55-16.52,7.01-38.6,12.39-63.03,2.82-17.49-6.75-32.32-20.83-42.07-34.41l23.84-18.98c7.45,12.34,18.23,21.06,28.55,25.53,15.5,6.27,29.16,4.02,41.93-1.4,34.16-14.49,39.95-45.74,29.28-70.89-4.78-11.26-12.3-19.59-24.81-24.02-10-3.73-21.67-4.1-37.35-4.53l-26.98-.95c-11.67-.37-26.28-.37-42.16-6.47-15.34-5.89-26.66-14.82-34.62-33.59-16.4-38.66,2.26-77.14,42.8-94.34,15.39-6.53,29.05-8.79,44.94-5.78,13,2.46,25.93,8.93,36.19,17.43l-15.94,24.03Z"/>
        <path class="cls-2" d="M1949.39-37.3c-8.2-.26-18.29,1.26-25.49,4.32-6.11,2.73-15.42,8.83-22.77,22.47-12.77,23.69-6.96,48.13,15.3,60.13,9.33,5.03,16.07,5.42,25.66,2.25,11.04-3.31,19.83-10.15,28.62-17l22.43-17.55c13.65-10.71,27.07-20.15,42.54-24.78,18.78-5.62,35.49-3.11,52.72,6.18,44.15,23.8,55.97,72.33,32.75,115.4-8.52,15.79-22.39,33.79-47.44,41.59-17.87,5.66-38.25,3.93-54.35-.57l6.75-29.71c13.53,4.98,27.39,5.04,38.25,2.09,16.02-4.8,25.28-15.09,31.86-27.3,17.61-32.66,2.6-60.67-21.45-73.64-10.77-5.81-21.85-7.6-34.38-3.25-10.14,3.33-19.47,10.34-31.99,19.81l-21.66,16.12c-9.34,7.01-20.75,16.14-36.96,21.3-15.66,4.99-30.08,5.09-48.02-4.58-36.97-19.93-46.45-61.63-25.55-100.39,7.93-14.72,17.19-25.02,31.47-32.6,11.68-6.21,25.83-9.23,39.14-9.01l2.58,28.72Z"/>
      </g>
      <g>
        <path class="cls-2" d="M2632.37-9.5c-7.5-3.34-17.41-5.74-25.23-5.63-6.69.22-17.61,2.35-29.57,12.19-20.78,17.11-24.63,41.94-8.56,61.45,6.74,8.18,12.83,11.09,22.9,11.78,11.47,1.11,22.2-1.9,32.92-4.92l27.4-7.77c16.68-4.76,32.68-8.42,48.75-6.86,19.51,1.89,34.03,10.54,46.47,25.65,31.88,38.72,24.49,88.12-13.29,119.22-13.85,11.41-33.5,22.82-59.64,20.58-18.68-1.52-36.9-10.81-50.1-21.07l17.48-24.96c10.64,9.72,23.46,15.02,34.62,16.39,16.64,1.61,29.11-4.42,39.81-13.23,28.64-23.58,25.33-55.19,7.97-76.28-7.78-9.44-17.35-15.3-30.61-16-10.64-.74-21.94,2.22-37.1,6.25l-26.14,6.74c-11.29,2.96-25.31,7.1-42.27,5.75-16.38-1.3-29.77-6.65-42.73-22.39-26.69-32.42-19.71-74.61,14.28-102.6,12.91-10.63,25.37-16.67,41.46-18.29,13.16-1.33,27.4,1.21,39.64,6.45l-8.47,27.57Z"/>
        <path class="cls-2" d="M2531.57,371.44c-4.17-7.07-10.84-14.78-17.28-19.23-5.57-3.7-15.7-8.31-31.16-7.23-26.85,1.87-44.4,19.85-42.64,45.08.74,10.57,4.01,16.48,11.82,22.88,8.7,7.57,19.18,11.34,29.66,15.1l26.83,9.57c16.34,5.81,31.5,12.11,43.68,22.71,14.79,12.87,21.6,28.33,22.96,47.86,3.49,50.03-31.21,85.97-80.02,89.37-17.9,1.25-40.53-.86-60.51-17.86-14.33-12.08-23.77-30.22-28.57-46.24l28.72-10.18c3.03,14.1,10.38,25.85,18.68,33.44,12.62,10.97,26.27,13.29,40.1,12.33,37.01-2.58,52.66-30.24,50.76-57.49-.85-12.2-5.25-22.53-15.64-30.79-8.23-6.78-19.15-10.93-33.84-16.44l-25.2-9.69c-10.91-4.14-24.73-8.91-37.76-19.85-12.59-10.57-20.38-22.7-21.8-43.03-2.92-41.9,27.26-72.2,71.18-75.26,16.68-1.16,30.33,1.15,44.38,9.16,11.49,6.56,21.61,16.89,28.54,28.26l-22.89,17.53Z"/>
        <path class="cls-2" d="M2611.37,190.29c-6.24-5.32-15.06-10.44-22.6-12.56-6.47-1.69-17.56-2.74-31.82,3.31-24.78,10.51-35.51,33.23-25.64,56.5,4.14,9.76,9.16,14.27,18.62,17.79,10.69,4.32,21.83,4.47,32.96,4.62l28.48.32c17.34.17,33.73,1.19,48.69,7.24,18.18,7.35,29.64,19.75,37.29,37.77,19.59,46.17-1.51,91.44-46.55,110.55-16.52,7.01-38.6,12.39-63.03,2.82-17.49-6.75-32.32-20.83-42.07-34.41l23.84-18.98c7.45,12.34,18.23,21.06,28.55,25.53,15.5,6.27,29.16,4.02,41.93-1.4,34.16-14.49,39.95-45.74,29.28-70.89-4.78-11.26-12.3-19.59-24.81-24.02-10-3.73-21.67-4.1-37.35-4.53l-26.98-.95c-11.67-.37-26.28-.37-42.16-6.47-15.34-5.89-26.66-14.82-34.62-33.59-16.4-38.66,2.26-77.14,42.8-94.34,15.39-6.53,29.05-8.79,44.94-5.78,13,2.46,25.93,8.93,36.19,17.43l-15.94,24.03Z"/>
      </g>
      <g>
        <path class="cls-2" d="M1337.23,606.59c7.54,3.25,17.47,5.54,25.3,5.33,6.68-.3,17.58-2.55,29.43-12.54,20.58-17.35,24.14-42.22,7.84-61.55-6.83-8.1-12.96-10.94-23.04-11.51-11.49-.98-22.18,2.16-32.86,5.31l-27.31,8.09c-16.62,4.95-32.58,8.8-48.67,7.43-19.53-1.66-34.15-10.14-46.77-25.1-32.33-38.34-25.51-87.83,11.89-119.37,13.72-11.57,33.23-23.21,59.39-21.28,18.7,1.3,37.02,10.38,50.34,20.48l-17.19,25.16c-10.76-9.6-23.63-14.74-34.81-15.98-16.66-1.42-29.05,4.76-39.65,13.7-28.37,23.92-24.69,55.48-7.08,76.37,7.89,9.35,17.53,15.09,30.79,15.64,10.65.62,21.91-2.47,37.03-6.69l26.06-7.04c11.26-3.09,25.22-7.4,42.2-6.24,16.4,1.11,29.85,6.3,42.99,21.89,27.07,32.11,20.58,74.38-13.08,102.76-12.78,10.78-25.17,16.96-41.24,18.78-13.15,1.48-27.42-.89-39.72-5.99l8.14-27.66Z"/>
        <path class="cls-2" d="M1433.57,224.5c4.25,7.02,11.01,14.65,17.5,19.03,5.62,3.64,15.8,8.13,31.24,6.87,26.82-2.18,44.16-20.37,42.11-45.57-.86-10.56-4.2-16.43-12.08-22.74-8.79-7.46-19.31-11.11-29.84-14.75l-26.94-9.26c-16.41-5.62-31.64-11.74-43.94-22.19-14.94-12.69-21.93-28.08-23.51-47.58-4.07-49.99,30.2-86.33,78.97-90.3,17.88-1.46,40.53.38,60.72,17.15,14.47,11.91,24.12,29.94,29.11,45.9l-28.6,10.51c-3.19-14.06-10.68-25.72-19.07-33.22-12.75-10.83-26.42-12.99-40.24-11.86-36.98,3.01-52.31,30.85-50.09,58.08.99,12.19,5.51,22.46,16,30.61,8.31,6.69,19.28,10.7,34.03,16.05l25.31,9.39c10.96,4.02,24.83,8.62,37.99,19.41,12.71,10.42,20.65,22.46,22.3,42.77,3.41,41.86-26.41,72.51-70.3,76.09-16.66,1.36-30.34-.8-44.48-8.65-11.57-6.42-21.81-16.64-28.87-27.93l22.69-17.8Z"/>
        <path class="cls-2" d="M1355.89,406.57c6.3,5.25,15.18,10.27,22.74,12.29,6.49,1.61,17.59,2.54,31.78-3.68,24.65-10.8,35.12-33.64,24.98-56.8-4.25-9.71-9.32-14.17-18.83-17.57-10.74-4.2-21.88-4.22-33.02-4.23l-28.48.02c-17.35.03-33.74-.8-48.78-6.67-18.26-7.13-29.87-19.41-37.73-37.33-20.13-45.94.44-91.46,45.26-111.09,16.44-7.2,38.45-12.84,62.99-3.56,17.56,6.55,32.56,20.46,42.47,33.92l-23.62,19.25c-7.59-12.25-18.48-20.84-28.85-25.2-15.58-6.09-29.21-3.68-41.91,1.89-33.98,14.89-39.41,46.2-28.45,71.22,4.91,11.21,12.53,19.44,25.09,23.73,10.04,3.62,21.71,3.84,37.4,4.09l26.99.64c11.67.23,26.29.06,42.24,5.98,15.41,5.71,26.83,14.51,35.01,33.18,16.85,38.47-1.36,77.16-41.69,94.83-15.31,6.71-28.95,9.13-44.87,6.31-13.03-2.31-26.04-8.63-36.39-17l15.65-24.22Z"/>
        <path class="cls-2" d="M1387.86,794.42c8.2.16,18.27-1.47,25.44-4.62,6.08-2.8,15.32-9.01,22.51-22.73,12.49-23.84,6.39-48.21-16-59.95-9.39-4.92-16.13-5.23-25.68-1.95-11,3.44-19.71,10.38-28.42,17.33l-22.23,17.81c-13.52,10.87-26.84,20.46-42.25,25.27-18.71,5.84-35.45,3.52-52.78-5.57-44.42-23.28-56.81-71.67-34.1-115.01,8.33-15.89,21.99-34.05,46.95-42.14,17.8-5.87,38.2-4.38,54.35-.06l-6.4,29.79c-13.59-4.82-27.45-4.72-38.27-1.64-15.96,4.98-25.1,15.39-31.54,27.67-17.22,32.86-1.89,60.7,22.31,73.38,10.84,5.68,21.93,7.35,34.42,2.84,10.1-3.45,19.35-10.57,31.75-20.18l21.47-16.37c9.25-7.12,20.56-16.38,36.71-21.73,15.6-5.17,30.02-5.44,48.07,4.02,37.2,19.5,47.16,61.09,26.72,100.09-7.76,14.81-16.9,25.22-31.09,32.97-11.61,6.34-25.72,9.54-39.03,9.47l-2.92-28.69Z"/>
      </g>
      <g>
        <path class="cls-2" d="M2260.46,526.93c7.54,3.25,17.47,5.54,25.3,5.33,6.68-.3,17.58-2.55,29.43-12.54,20.58-17.35,24.14-42.22,7.84-61.55-6.83-8.1-12.96-10.94-23.04-11.51-11.49-.98-22.18,2.16-32.86,5.31l-27.31,8.09c-16.62,4.95-32.58,8.8-48.67,7.43-19.53-1.66-34.15-10.14-46.77-25.1-32.33-38.34-25.51-87.83,11.89-119.37,13.72-11.57,33.23-23.21,59.39-21.28,18.7,1.3,37.02,10.38,50.34,20.48l-17.19,25.16c-10.76-9.6-23.63-14.74-34.81-15.98-16.66-1.42-29.05,4.76-39.65,13.7-28.37,23.92-24.69,55.48-7.08,76.37,7.89,9.35,17.53,15.09,30.79,15.64,10.65.62,21.91-2.47,37.03-6.69l26.06-7.04c11.26-3.09,25.22-7.4,42.2-6.24,16.4,1.11,29.85,6.3,42.99,21.89,27.07,32.11,20.58,74.38-13.08,102.76-12.78,10.78-25.17,16.96-41.24,18.78-13.15,1.48-27.42-.89-39.72-5.99l8.14-27.66Z"/>
        <path class="cls-2" d="M2356.81,144.84c4.25,7.02,11.01,14.65,17.5,19.03,5.62,3.64,15.8,8.13,31.24,6.87,26.82-2.18,44.16-20.37,42.11-45.57-.86-10.56-4.2-16.43-12.08-22.74-8.79-7.46-19.31-11.11-29.84-14.75l-26.94-9.26c-16.41-5.62-31.64-11.74-43.94-22.19-14.94-12.69-21.93-28.08-23.51-47.58-4.07-49.99,30.2-86.33,78.97-90.3,17.88-1.46,40.53.38,60.72,17.15,14.47,11.91,24.12,29.94,29.11,45.9l-28.6,10.51c-3.19-14.06-10.68-25.72-19.07-33.22-12.75-10.83-26.42-12.99-40.24-11.86-36.98,3.01-52.31,30.85-50.09,58.08.99,12.19,5.51,22.46,16,30.61,8.31,6.69,19.28,10.7,34.03,16.05l25.31,9.39c10.96,4.02,24.83,8.62,37.99,19.41,12.71,10.42,20.65,22.46,22.3,42.77,3.41,41.86-26.41,72.51-70.3,76.09-16.66,1.36-30.34-.8-44.48-8.65-11.57-6.42-21.81-16.64-28.87-27.93l22.69-17.8Z"/>
        <path class="cls-2" d="M2279.13,326.91c6.3,5.25,15.18,10.27,22.74,12.29,6.49,1.61,17.59,2.54,31.78-3.68,24.65-10.8,35.12-33.64,24.98-56.8-4.25-9.71-9.32-14.17-18.83-17.57-10.74-4.2-21.88-4.22-33.02-4.23l-28.48.02c-17.35.03-33.74-.8-48.78-6.67-18.26-7.13-29.87-19.41-37.73-37.33-20.13-45.94.44-91.46,45.26-111.09,16.44-7.2,38.45-12.84,62.99-3.56,17.56,6.55,32.56,20.46,42.47,33.92l-23.62,19.25c-7.59-12.25-18.48-20.84-28.85-25.2-15.58-6.09-29.21-3.68-41.91,1.89-33.98,14.89-39.41,46.2-28.45,71.22,4.91,11.21,12.53,19.44,25.09,23.73,10.04,3.62,21.71,3.84,37.4,4.09l26.99.64c11.67.23,26.29.06,42.24,5.98,15.41,5.71,26.83,14.51,35.01,33.18,16.85,38.47-1.36,77.16-41.69,94.83-15.31,6.71-28.95,9.13-44.87,6.31-13.03-2.31-26.04-8.63-36.39-17l15.65-24.22Z"/>
        <path class="cls-2" d="M2311.1,714.76c8.2.16,18.27-1.47,25.44-4.62,6.08-2.8,15.32-9.01,22.51-22.73,12.49-23.84,6.39-48.21-16-59.95-9.39-4.92-16.13-5.23-25.68-1.95-11,3.44-19.71,10.38-28.42,17.33l-22.23,17.81c-13.52,10.87-26.84,20.46-42.25,25.27-18.71,5.84-35.45,3.52-52.78-5.57-44.42-23.28-56.81-71.67-34.1-115.01,8.33-15.89,21.99-34.05,46.95-42.14,17.8-5.87,38.2-4.38,54.35-.06l-6.4,29.79c-13.59-4.82-27.45-4.72-38.27-1.64-15.96,4.98-25.1,15.39-31.54,27.67-17.22,32.86-1.89,60.7,22.31,73.38,10.84,5.68,21.93,7.35,34.42,2.84,10.1-3.45,19.35-10.57,31.75-20.18l21.47-16.37c9.25-7.12,20.56-16.38,36.71-21.73,15.6-5.17,30.02-5.44,48.07,4.02,37.2,19.5,47.16,61.09,26.72,100.09-7.76,14.81-16.9,25.22-31.09,32.97-11.61,6.34-25.72,9.54-39.03,9.47l-2.92-28.69Z"/>
      </g>
      <g>
        <path class="cls-2" d="M294.61,507.63c6.65,4.81,15.85,9.2,23.53,10.71,6.59,1.16,17.72,1.33,31.45-5.84,23.85-12.46,32.74-35.96,21.03-58.37-4.91-9.39-10.27-13.5-19.99-16.24-11-3.45-22.12-2.71-33.23-1.96l-28.42,1.97c-17.3,1.22-33.71,1.51-49.12-3.32-18.71-5.87-31.13-17.32-40.19-34.67-23.22-44.45-5.81-91.27,37.55-113.93,15.9-8.31,37.48-15.44,62.6-7.86,17.97,5.33,33.88,18.18,44.69,30.93l-22.25,20.83c-8.41-11.71-19.86-19.53-30.5-23.17-15.96-5.01-29.39-1.67-41.68,4.75-32.89,17.18-36.16,48.79-23.51,73,5.66,10.84,13.83,18.54,26.66,21.96,10.26,2.92,21.93,2.35,37.6,1.52l26.97-1.21c11.66-.57,26.23-1.74,42.55,3.08,15.77,4.64,27.76,12.64,37.2,30.71,19.45,37.22,3.92,77.07-35.11,97.46-14.82,7.74-28.26,11.09-44.33,9.37-13.15-1.41-26.57-6.83-37.47-14.47l13.96-25.23Z"/>
        <path class="cls-2" d="M471.7,155.61c2.62,7.77,7.56,16.7,12.95,22.38,4.69,4.77,13.66,11.37,29,13.5,26.66,3.7,47.53-10.28,51.01-35.33,1.46-10.5-.53-16.95-6.85-24.83-6.95-9.19-16.44-15.04-25.92-20.89l-24.28-14.89c-14.8-9.05-28.33-18.34-38.07-31.21-11.83-15.64-15.3-32.17-12.61-51.56,6.89-49.68,48.24-77.7,96.71-70.98,17.77,2.47,39.48,9.18,55.54,29.93,11.54,14.77,17.04,34.47,18.43,51.13l-30.2,4.05c-.06-14.42-4.84-27.43-11.39-36.57-10.09-13.34-22.97-18.42-36.7-20.32-36.75-5.1-57.76,18.75-61.52,45.8-1.68,12.12.5,23.13,8.96,33.35,6.66,8.33,16.49,14.64,29.73,23.06l22.67,14.67c9.83,6.3,22.37,13.81,32.86,27.2,10.14,12.93,15.27,26.41,12.47,46.6-5.77,41.6-41.54,65.04-85.16,58.99-16.56-2.3-29.44-7.37-41.54-18.11-9.89-8.78-17.67-20.98-22.11-33.53l26.01-12.44Z"/>
        <path class="cls-2" d="M356.31,316.44c5.01,6.5,12.59,13.32,19.53,16.94,5.99,2.98,16.61,6.3,31.82,3.32,26.41-5.18,41.59-25.2,36.72-50.01-2.04-10.4-6.02-15.85-14.56-21.24-9.57-6.43-20.44-8.87-31.31-11.31l-27.81-6.18c-16.94-3.74-32.76-8.11-46.16-17.12-16.27-10.93-24.94-25.44-28.71-44.64-9.66-49.21,20.31-89.17,68.32-98.6,17.61-3.46,40.32-4.17,62.26,10.22,15.72,10.21,27.33,27.04,34.08,42.34l-27.24,13.66c-4.75-13.61-13.51-24.36-22.68-30.87-13.88-9.33-27.71-9.94-41.32-7.27-36.41,7.15-48.51,36.53-43.25,63.34,2.36,12,8,21.7,19.33,28.62,9.01,5.71,20.36,8.47,35.62,12.12l26.21,6.49c11.34,2.76,25.64,5.77,39.93,15.02,13.8,8.92,23.04,19.99,26.97,40,8.09,41.21-18.1,75.02-61.31,83.5-16.4,3.22-30.24,2.62-45.17-3.59-12.22-5.08-23.54-14.08-31.82-24.51l20.54-20.24Z"/>
        <path class="cls-2" d="M303.21,701.97c7.97,1.94,18.15,2.53,25.83,1.02,6.54-1.41,16.91-5.46,26.91-17.29,17.38-20.55,16.72-45.67-2.59-61.99-8.09-6.84-14.61-8.61-24.64-7.48-11.49.96-21.5,5.85-31.51,10.74l-25.57,12.56c-15.56,7.67-30.64,14.14-46.73,15.49-19.54,1.64-35.37-4.27-50.31-16.91-38.3-32.38-39.87-82.31-8.28-119.67,11.59-13.7,28.87-28.46,54.99-30.93,18.65-1.86,38.24,4.03,53.06,11.75l-12.73,27.69c-12.21-7.66-25.77-10.58-37-9.92-16.66,1.4-27.84,9.56-36.8,20.15-23.96,28.33-15.04,58.84,5.82,76.47,9.34,7.9,19.81,11.94,32.98,10.26,10.6-1.17,21.19-6.11,35.38-12.8l24.51-11.31c10.58-4.93,23.63-11.52,40.56-13.23,16.35-1.66,30.48,1.21,46.05,14.37,32.07,27.11,32.76,69.88,4.33,103.5-10.79,12.77-21.97,20.94-37.51,25.42-12.71,3.67-27.18,3.72-40.16.76l3.39-28.64Z"/>
      </g>
      <g>
        <path class="cls-2" d="M108.88,192.08c1.42,8.08,4.95,17.65,9.41,24.08,3.91,5.43,11.78,13.3,26.62,17.73,25.79,7.69,48.54-2.97,55.77-27.2,3.03-10.16,2.04-16.84-3.01-25.58-5.48-10.14-13.97-17.36-22.46-24.57l-21.74-18.4c-13.26-11.19-25.23-22.42-32.9-36.62-9.32-17.25-10.25-34.12-4.65-52.87C130.25.6,175.37-20.84,222.25-6.85c17.2,5.13,37.63,15.06,50.36,38,9.17,16.35,11.62,36.65,10.48,53.33l-30.47-.58c2.13-14.26-.63-27.85-5.72-37.87-7.95-14.71-19.91-21.68-33.2-25.65-35.56-10.61-59.94,9.78-67.74,35.96-3.5,11.72-3.01,22.93,3.81,34.33,5.32,9.25,14.08,16.97,25.9,27.3l20.18,17.93c8.76,7.72,20.02,17.04,28.36,31.87,8.07,14.32,11.1,28.42,5.27,47.95-12,40.24-50.91,58-93.11,45.41-16.02-4.78-27.99-11.75-38.32-24.19-8.45-10.18-14.29-23.41-16.77-36.49l27.6-8.36Z"/>
        <path class="cls-2" d="M-29.55,333.58c3.97,7.18,10.43,15.08,16.74,19.7,5.47,3.86,15.47,8.75,30.95,8.1,26.89-1.12,44.93-18.61,43.88-43.87-.44-10.59-3.55-16.58-11.17-23.2-8.49-7.8-18.86-11.86-29.23-15.92l-26.55-10.32c-16.18-6.26-31.15-12.98-43.03-23.91-14.43-13.27-20.8-28.92-21.62-48.48-2.09-50.11,33.58-85.07,82.47-87.11,17.93-.75,40.49,1.98,59.99,19.53,13.99,12.47,22.92,30.87,27.27,47.01l-28.99,9.38c-2.63-14.17-9.66-26.12-17.74-33.95-12.31-11.32-25.89-14.02-39.74-13.44-37.07,1.55-53.48,28.76-52.34,56.06.51,12.22,4.62,22.66,14.78,31.22,8.04,7.01,18.84,11.46,33.37,17.38l24.92,10.38c10.79,4.45,24.47,9.59,37.19,20.89,12.29,10.91,19.74,23.25,20.6,43.62,1.75,41.96-29.25,71.41-73.25,73.25-16.7.7-30.29-2-44.1-10.39-11.3-6.87-21.13-17.49-27.74-29.04l23.37-16.89Z"/>
      </g>
      <g>
        <path class="cls-2" d="M1054.54,619.87c7.88,2.3,18.02,3.35,25.76,2.18,6.6-1.12,17.14-4.7,27.66-16.07,18.28-19.75,18.76-44.87.2-62.05-7.78-7.2-14.21-9.26-24.28-8.58-11.52.44-21.74,4.88-31.96,9.31l-26.11,11.4c-15.89,6.96-31.25,12.75-47.38,13.37-19.59.76-35.14-5.86-49.5-19.15-36.81-34.07-36.13-84.02-2.9-119.92,12.19-13.17,30.12-27.13,56.32-28.43,18.72-1.02,38.02,5.74,52.48,14.13l-13.96,27.09c-11.86-8.2-25.27-11.72-36.51-11.57-16.71.64-28.25,8.3-37.67,18.48-25.21,27.23-17.67,58.1,2.38,76.66,8.98,8.31,19.25,12.82,32.48,11.73,10.65-.7,21.44-5.15,35.92-11.2l25-10.2c10.79-4.45,24.12-10.45,41.11-11.39,16.41-.92,30.4,2.58,45.36,16.43,30.82,28.53,29.58,71.28-.33,103.59-11.36,12.27-22.89,19.93-38.61,23.71-12.86,3.09-27.32,2.49-40.15-1.05l4.67-28.46Z"/>
        <path class="cls-2" d="M1103.11,228.82c5.08,6.44,12.73,13.18,19.71,16.73,6.02,2.92,16.68,6.12,31.85,2.97,26.35-5.47,41.32-25.65,36.18-50.41-2.15-10.38-6.19-15.79-14.79-21.08-9.64-6.32-20.53-8.65-31.43-10.97l-27.87-5.87c-16.98-3.55-32.84-7.76-46.34-16.61-16.39-10.76-25.22-25.16-29.19-44.33-10.2-49.11,19.34-89.39,67.25-99.33,17.57-3.65,40.27-4.61,62.37,9.54,15.83,10.04,27.62,26.74,34.54,41.97l-27.09,13.96c-4.9-13.56-13.77-24.21-23.01-30.62-13.98-9.17-27.82-9.63-41.4-6.82-36.33,7.54-48.11,37.06-42.56,63.8,2.49,11.98,8.24,21.61,19.64,28.41,9.07,5.61,20.45,8.25,35.75,11.73l26.28,6.2c11.37,2.64,25.71,5.49,40.09,14.58,13.9,8.77,23.26,19.74,27.4,39.7,8.54,41.12-17.28,75.21-60.4,84.17-16.37,3.4-30.21,2.94-45.21-3.1-12.27-4.95-23.69-13.83-32.09-24.16l20.32-20.46Z"/>
        <path class="cls-2" d="M1048.43,419.06c6.9,4.44,16.33,8.32,24.09,9.4,6.64.8,17.76.35,31.08-7.56,23.13-13.75,30.71-37.71,17.79-59.44-5.42-9.11-11-12.91-20.85-15.12-11.17-2.84-22.23-1.49-33.29-.14l-28.27,3.52c-17.21,2.17-33.58,3.36-49.23-.62-19-4.83-32.03-15.58-42.04-32.41-25.63-43.11-10.82-90.81,31.24-115.82,15.42-9.17,36.58-17.47,62.07-11.29,18.24,4.34,34.83,16.29,46.32,28.43l-21.07,22.02c-9.04-11.23-20.9-18.41-31.73-21.46-16.21-4.12-29.44-.05-41.36,7.04-31.89,18.96-33.42,50.7-19.46,74.18,6.25,10.52,14.83,17.75,27.82,20.46,10.41,2.35,22.02,1.14,37.62-.55l26.86-2.69c11.61-1.21,26.09-3.18,42.65.74,16,3.77,28.42,11.09,38.83,28.62,21.46,36.1,8.15,76.74-29.7,99.24-14.37,8.54-27.6,12.62-43.75,11.79-13.21-.68-26.9-5.36-38.2-12.39l12.55-25.96Z"/>
        <path class="cls-2" d="M1127.92,800.03c8.16-.85,17.95-3.71,24.67-7.72,5.69-3.53,14.09-10.83,19.54-25.33,9.46-25.19.41-48.63-23.26-57.52-9.92-3.73-16.65-3.21-25.72,1.23-10.5,4.76-18.29,12.73-26.07,20.7l-19.86,20.42c-12.08,12.45-24.11,23.61-38.81,30.28-17.85,8.1-34.75,7.86-53.07.97-46.95-17.64-65.2-64.13-48-109.94,6.31-16.8,17.63-36.5,41.4-47.6,16.95-8.01,37.37-9.05,53.93-6.75l-2.69,30.35c-14.08-3.11-27.82-1.31-38.18,3.08-15.23,6.91-23.01,18.36-27.89,31.34-13.05,34.73,5.6,60.47,31.17,70.07,11.45,4.3,22.67,4.59,34.51-1.42,9.59-4.67,17.9-12.87,29.03-23.94l19.29-18.89c8.31-8.2,18.38-18.79,33.76-26.08,14.84-7.06,29.12-9.1,48.2-1.93,39.31,14.77,54.33,54.81,38.84,96.04-5.88,15.65-13.66,27.1-26.79,36.55-10.74,7.72-24.35,12.63-37.57,14.2l-6.43-28.11Z"/>
      </g>
      <g>
        <path class="cls-2" d="M781.92,148.34c-6.77-4.64-16.07-8.81-23.79-10.12-6.62-1-17.75-.89-31.29,6.62-23.54,13.05-31.83,36.77-19.57,58.88,5.14,9.27,10.6,13.24,20.38,15.74,11.08,3.18,22.18,2.16,33.27,1.14l28.36-2.67c17.27-1.65,33.67-2.35,49.18,2.1,18.85,5.4,31.55,16.54,41.04,33.66,24.32,43.86,8.08,91.1-34.71,114.83-15.69,8.7-37.08,16.36-62.38,9.41-18.1-4.88-34.32-17.33-45.44-29.81l21.72-21.37c8.7,11.49,20.34,19.03,31.07,22.4,16.08,4.61,29.42.94,41.55-5.79,32.45-17.99,34.93-49.68,21.68-73.57-5.93-10.7-14.29-18.19-27.2-21.29-10.33-2.66-21.98-1.8-37.62-.58l-26.93,1.88c-11.64.86-26.18,2.39-42.61-2.02-15.88-4.25-28.07-11.94-37.96-29.77-20.37-36.73-5.84-76.95,32.67-98.31,14.62-8.11,27.97-11.78,44.09-10.46,13.19,1.08,26.73,6.16,37.81,13.54l-13.33,25.57Z"/>
        <path class="cls-2" d="M613.64,504.65c-2.82-7.71-7.98-16.5-13.5-22.05-4.81-4.65-13.93-11.02-29.33-12.77-26.74-3.03-47.26,11.46-50.11,36.59-1.19,10.53.95,16.93,7.46,24.65,7.18,9.02,16.81,14.63,26.43,20.23l24.64,14.28c15.02,8.68,28.78,17.63,38.83,30.26,12.21,15.34,16.09,31.78,13.89,51.23-5.65,49.83-46.29,78.87-94.91,73.36-17.83-2.02-39.7-8.2-56.26-28.54-11.9-14.48-17.89-34.03-19.7-50.65l30.09-4.8c.42,14.41,5.52,27.3,12.3,36.27,10.42,13.08,23.42,17.84,37.2,19.4,36.87,4.18,57.28-20.18,60.36-47.32,1.38-12.16-1.08-23.11-9.79-33.12-6.87-8.17-16.85-14.22-30.3-22.31l-23.02-14.1c-9.98-6.06-22.7-13.25-33.53-26.38-10.46-12.68-15.92-26.02-13.63-46.27,4.73-41.73,39.91-66.05,83.66-61.09,16.61,1.88,29.62,6.64,41.98,17.07,10.11,8.53,18.19,20.53,22.93,32.97l-25.7,13.09Z"/>
        <path class="cls-2" d="M725,341c-5.17-6.37-12.92-13-19.94-16.45-6.06-2.83-16.77-5.89-31.89-2.52-26.27,5.84-40.95,26.23-35.47,50.91,2.3,10.35,6.41,15.7,15.08,20.87,9.73,6.19,20.65,8.36,31.58,10.53l27.95,5.48c17.03,3.32,32.95,7.3,46.57,15.96,16.54,10.52,25.57,24.81,29.81,43.91,10.88,48.96-18.09,89.65-65.85,100.27-17.52,3.89-40.2,5.17-62.49-8.67-15.97-9.81-28-26.35-35.12-41.48l26.89-14.33c5.09,13.49,14.11,24.02,23.44,30.29,14.11,8.98,27.95,9.24,41.49,6.24,36.22-8.05,47.59-37.73,41.66-64.39-2.65-11.94-8.54-21.5-20.04-28.13-9.15-5.49-20.56-7.96-35.91-11.23l-26.36-5.84c-11.41-2.48-25.78-5.13-40.29-14.02-14.02-8.58-23.53-19.42-27.95-39.31-9.11-41,16.23-75.45,59.21-85,16.32-3.63,30.17-3.37,45.25,2.47,12.34,4.78,23.88,13.49,32.42,23.71l-20.03,20.74Z"/>
        <path class="cls-2" d="M768.49-45.73c-8.02-1.74-18.21-2.08-25.85-.38-6.5,1.58-16.77,5.88-26.47,17.96-16.86,20.98-15.58,46.07,4.13,61.91,8.26,6.64,14.82,8.25,24.82,6.87,11.46-1.25,21.35-6.38,31.23-11.52l25.25-13.19c15.36-8.05,30.28-14.9,46.33-16.64,19.49-2.12,35.46,3.39,50.72,15.65,39.09,31.42,41.91,81.29,11.26,119.43-11.24,13.99-28.15,29.16-54.2,32.29-18.6,2.32-38.33-3.08-53.34-10.43l12.03-28c12.4,7.35,26.02,9.93,37.23,9,16.62-1.81,27.6-10.25,36.28-21.06,23.24-28.92,13.57-59.19-7.72-76.31-9.54-7.66-20.1-11.44-33.22-9.43-10.57,1.44-21.03,6.64-35.05,13.68l-24.23,11.92c-10.45,5.2-23.33,12.11-40.21,14.23-16.31,2.07-30.5-.45-46.39-13.22-32.73-26.31-34.49-69.04-6.9-103.36,10.47-13.03,21.44-21.48,36.86-26.35,12.62-3.98,27.08-4.39,40.13-1.75l-2.68,28.71Z"/>
      </g>
      <path class="cls-2" d="M-120.41,483.33c-7.37,3.61-15.57,9.66-20.51,15.74-4.12,5.27-9.5,15.01-9.63,30.51-.21,26.91,16.36,45.8,41.64,46,10.6.08,16.74-2.72,23.73-10.01,8.22-8.09,12.79-18.25,17.35-28.41l11.62-26c7.06-15.85,14.51-30.47,26.02-41.79,13.97-13.75,29.92-19.34,49.49-19.18,50.15.4,83.29,37.77,82.91,86.7-.14,17.94-3.99,40.34-22.49,58.95-13.15,13.36-31.97,21.36-48.31,24.9l-7.92-29.42c14.29-1.93,26.57-8.35,34.78-16.03,11.92-11.73,15.29-25.16,15.4-39.03.29-37.1-26.07-54.85-53.39-55.06-12.23-.1-22.87,3.49-31.91,13.21-7.4,7.68-12.38,18.25-19.01,32.47l-11.61,24.38c-4.98,10.56-10.79,23.97-22.72,36.11-11.51,11.73-24.21,18.57-44.59,18.4-42-.33-69.87-32.76-69.53-76.8.13-16.72,3.5-30.15,12.57-43.53,7.43-10.95,18.51-20.24,30.39-26.27l15.71,24.18Z"/>
      <path class="cls-2" d="M773.8,804.65c3.92,7.21,10.31,15.15,16.59,19.83,5.44,3.9,15.4,8.86,30.88,8.33,26.9-.92,45.07-18.28,44.2-43.55-.36-10.59-3.43-16.61-11-23.29-8.43-7.87-18.77-12-29.11-16.14l-26.47-10.51c-16.13-6.38-31.05-13.21-42.85-24.23-14.33-13.38-20.58-29.07-21.26-48.64-1.72-50.12,34.22-84.81,83.12-86.49,17.93-.62,40.47,2.28,59.84,19.98,13.9,12.58,22.69,31.04,26.92,47.21l-29.06,9.16c-2.53-14.19-9.47-26.2-17.49-34.08-12.22-11.41-25.78-14.21-39.64-13.74-37.08,1.27-53.7,28.37-52.76,55.67.42,12.23,4.45,22.7,14.54,31.33,7.99,7.07,18.76,11.6,33.24,17.63l24.84,10.57c10.76,4.53,24.4,9.77,37.03,21.17,12.21,11,19.57,23.4,20.27,43.77,1.44,41.97-29.78,71.2-73.79,72.71-16.71.57-30.27-2.22-44.03-10.72-11.25-6.96-21-17.64-27.53-29.25l23.5-16.72Z"/>
      <path class="cls-2" d="M2623.33,782.69c3.92,7.21,10.31,15.15,16.59,19.83,5.44,3.9,15.4,8.86,30.88,8.33,26.9-.92,45.07-18.28,44.2-43.55-.36-10.59-3.43-16.61-11-23.29-8.43-7.87-18.77-12-29.11-16.14l-26.47-10.51c-16.13-6.38-31.05-13.21-42.85-24.23-14.33-13.38-20.58-29.07-21.26-48.64-1.72-50.12,34.22-84.81,83.12-86.49,17.93-.62,40.47,2.28,59.84,19.98,13.9,12.58,22.69,31.04,26.92,47.21l-29.06,9.16c-2.53-14.19-9.47-26.2-17.49-34.08-12.22-11.41-25.78-14.21-39.64-13.74-37.08,1.27-53.7,28.37-52.76,55.67.42,12.23,4.45,22.7,14.54,31.33,7.99,7.07,18.76,11.6,33.24,17.63l24.84,10.57c10.76,4.53,24.4,9.77,37.03,21.17,12.21,11,19.57,23.4,20.27,43.77,1.44,41.97-29.78,71.2-73.79,72.71-16.71.57-30.27-2.22-44.03-10.72-11.25-6.96-21-17.64-27.53-29.25l23.5-16.72Z"/>
      <path class="cls-2" d="M1222.12,65.08c.15,8.2,2.17,18.2,5.58,25.24,3.03,5.97,9.58,14.96,23.57,21.63,24.3,11.58,48.42,4.55,59.3-18.27,4.56-9.57,4.61-16.32.97-25.74-3.85-10.87-11.12-19.31-18.4-27.74l-18.65-21.53c-11.37-13.1-21.47-26.04-26.86-41.26-6.55-18.48-4.87-35.29,3.55-52.96,21.58-45.28,69.46-59.5,113.63-38.45,16.2,7.72,34.86,20.68,43.9,45.31,6.54,17.57,5.83,38.01,2.13,54.31l-30.01-5.27c4.3-13.76,3.67-27.61.19-38.3-5.59-15.76-16.33-24.5-28.85-30.46-33.49-15.96-60.73.42-72.48,25.08-5.26,11.04-6.51,22.2-1.53,34.5,3.83,9.96,11.3,18.94,21.38,30.96l17.18,20.83c7.46,8.98,17.15,19.92,23.11,35.86,5.76,15.39,6.58,29.79-2.19,48.19-18.07,37.91-59.25,49.45-99,30.51-15.09-7.19-25.84-15.92-34.13-29.81-6.78-11.36-10.51-25.34-10.94-38.64l28.56-4Z"/>
    </g>
  </g>
</svg>