<?xml version="1.0" encoding="UTF-8"?>
<svg id="Warstwa_1" data-name="Warstwa 1" xmlns="http://www.w3.org/2000/svg" viewBox="0 0 360 120">
  <defs>
    <style>
      .cls-1 {
        fill: #662482;
      }
    </style>
  </defs>
  <g>
    <path d="M93.47,36.72c2.1,0,5.91.17,8.7,2.39,1.19.91,3.41,3.24,3.41,7.84,0,1.88-.4,5.17-3.75,7.45,5.29,1.31,7.22,5.91,7.22,9.55s-1.82,6.59-3.87,8.19c-3.01,2.39-6.48,2.5-9.09,2.5h-9.43v-37.91h6.82ZM90.86,53.38h3.18c2.22,0,7.44-.45,7.44-6.31,0-6.25-6.14-6.37-7.33-6.37h-3.3v12.68ZM90.86,70.66h4.83c2.44,0,4.83-.17,6.65-1.59,1.48-1.08,2.5-2.96,2.5-5.23,0-3.01-1.76-4.78-3.24-5.57-1.42-.8-3.41-1.14-6.42-1.14h-4.32v13.53Z"/>
    <path d="M119.85,33.2v41.44h-4.09v-41.44h4.09Z"/>
    <path d="M129.63,39.22c1.59,0,2.9,1.31,2.9,2.9s-1.31,2.9-2.9,2.9-2.9-1.31-2.9-2.9,1.31-2.9,2.9-2.9ZM131.67,51.05v23.59h-4.09v-23.59h4.09Z"/>
    <path d="M144.18,70.88h16.37v3.75h-24.56l17.05-19.84h-13.76v-3.75h21.94l-17.05,19.84ZM149.75,40.19c1.71,0,3.01,1.31,3.01,3.01s-1.31,3.01-3.01,3.01-3.01-1.31-3.01-3.01,1.31-3.01,3.01-3.01Z"/>
    <path d="M185.9,68.61c-.68,1.31-1.7,2.73-2.9,3.81-2.16,1.93-4.83,2.9-7.84,2.9-5.68,0-11.66-3.58-11.66-12.33,0-7.05,4.32-12.5,11.43-12.5,4.6,0,7.5,2.27,8.92,4.32,1.48,2.1,2.33,5.74,2.22,8.87h-18.36c.06,4.89,3.41,8.01,7.5,8.01,1.93,0,3.47-.57,4.83-1.7,1.08-.91,1.93-2.1,2.44-3.24l3.41,1.88ZM181.87,60.26c-.68-3.69-3.47-6.14-6.93-6.14s-6.31,2.61-6.94,6.14h13.87Z"/>
    <path d="M194.37,39.22c1.59,0,2.9,1.31,2.9,2.9s-1.31,2.9-2.9,2.9-2.9-1.31-2.9-2.9,1.31-2.9,2.9-2.9ZM196.42,51.05v36.66h-4.09v-36.66h4.09Z"/>
    <path d="M235.36,44.22c-.51-1.02-1.37-2.16-2.22-2.84-.74-.57-2.1-1.31-4.26-1.31-3.75,0-6.37,2.33-6.37,5.86,0,1.48.4,2.33,1.42,3.3,1.13,1.14,2.56,1.76,3.98,2.39l3.64,1.59c2.22.96,4.26,1.99,5.86,3.58,1.93,1.93,2.73,4.15,2.73,6.88,0,6.99-5.17,11.65-11.99,11.65-2.5,0-5.63-.51-8.24-3.07-1.88-1.82-3.01-4.43-3.52-6.71l4.09-1.14c.29,1.99,1.19,3.69,2.28,4.83,1.65,1.65,3.52,2.1,5.46,2.1,5.17,0,7.61-3.69,7.61-7.5,0-1.7-.51-3.18-1.87-4.43-1.08-1.02-2.56-1.7-4.55-2.61l-3.41-1.59c-1.48-.68-3.35-1.48-5.06-3.12-1.65-1.59-2.61-3.36-2.61-6.2,0-5.86,4.49-9.78,10.63-9.78,2.33,0,4.21.46,6.08,1.7,1.54,1.02,2.84,2.56,3.69,4.21l-3.35,2.22Z"/>
    <path d="M248.88,39.22c1.59,0,2.9,1.31,2.9,2.9s-1.31,2.9-2.9,2.9-2.9-1.31-2.9-2.9,1.31-2.9,2.9-2.9ZM250.93,51.05v23.59h-4.09v-23.59h4.09Z"/>
    <path d="M279.58,68.61c-.68,1.31-1.7,2.73-2.9,3.81-2.16,1.93-4.83,2.9-7.84,2.9-5.68,0-11.66-3.58-11.66-12.33,0-7.05,4.32-12.5,11.43-12.5,4.6,0,7.5,2.27,8.92,4.32,1.48,2.1,2.33,5.74,2.22,8.87h-18.36c.06,4.89,3.41,8.01,7.5,8.01,1.93,0,3.47-.57,4.83-1.7,1.08-.91,1.93-2.1,2.45-3.24l3.41,1.88ZM275.55,60.26c-.68-3.69-3.47-6.14-6.93-6.14s-6.31,2.61-6.94,6.14h13.87Z"/>
    <path d="M290.1,74.64h-4.09v-41.44h4.09v21.14c2.79-3.47,6.37-3.86,8.07-3.86,7.39,0,11.48,6.14,11.48,12.5s-4.15,12.33-11.31,12.33c-3.81,0-6.48-1.7-8.24-3.98v3.3ZM305.45,62.98c0-5.8-3.92-8.87-7.73-8.87s-7.85,3.12-7.85,8.81c0,4.83,3.07,8.75,7.9,8.75s7.67-3.98,7.67-8.7Z"/>
    <path d="M317.95,39.22c1.59,0,2.9,1.31,2.9,2.9s-1.31,2.9-2.9,2.9-2.9-1.31-2.9-2.9,1.31-2.9,2.9-2.9ZM320,51.05v23.59h-4.09v-23.59h4.09Z"/>
    <path d="M348.65,68.61c-.68,1.31-1.7,2.73-2.9,3.81-2.16,1.93-4.83,2.9-7.84,2.9-5.68,0-11.66-3.58-11.66-12.33,0-7.05,4.32-12.5,11.43-12.5,4.6,0,7.5,2.27,8.92,4.32,1.48,2.1,2.33,5.74,2.22,8.87h-18.36c.06,4.89,3.41,8.01,7.5,8.01,1.93,0,3.47-.57,4.83-1.7,1.08-.91,1.93-2.1,2.44-3.24l3.41,1.88ZM344.61,60.26c-.68-3.69-3.47-6.14-6.93-6.14s-6.31,2.61-6.94,6.14h13.87Z"/>
  </g>
  <path class="cls-1" d="M62.27,74.16c-2.22-2.22-5.08-3.65-8.18-5l-5.08-2.22c-1.99-.87-3.97-1.75-5.56-3.34-1.43-1.35-1.99-2.54-1.99-4.61,0-4.92,3.65-8.18,8.89-8.18,3.02,0,4.92,1.03,5.96,1.83,1.19.95,2.38,2.54,3.1,3.97l4.69-3.1c-1.19-2.3-3.02-4.45-5.16-5.88-2.62-1.75-5.24-2.38-8.5-2.38-5.8,0-10.55,2.51-13.01,6.67-1.55-2.86-4.21-5.33-8.35-6.35,4.69-3.18,5.24-7.78,5.24-10.4,0-6.43-3.1-9.69-4.77-10.96-3.89-3.1-9.21-3.33-12.15-3.33h-3.65v5.56h4.61c1.67,0,10.24.16,10.24,8.89,0,8.18-7.31,8.81-10.4,8.81h-4.45v5.24h6.04c4.21,0,6.99.48,8.97,1.59,2.07,1.11,4.53,3.57,4.53,7.78,0,3.18-1.43,5.8-3.49,7.31-2.54,1.99-5.88,2.22-9.29,2.22h-6.75v5.56h7.31c3.65,0,8.5-.16,12.71-3.49,1.44-1.12,2.81-2.73,3.8-4.71.48.68,1.04,1.32,1.67,1.93,2.38,2.3,5,3.42,7.07,4.37l4.77,2.22c2.78,1.27,4.84,2.22,6.35,3.65,1.91,1.75,2.62,3.81,2.62,6.19,0,5.32-3.42,10.48-10.64,10.48-2.7,0-5.32-.64-7.62-2.94-1.51-1.59-2.78-3.97-3.18-6.75l-5.72,1.59c.72,3.18,2.3,6.83,4.92,9.37,3.65,3.57,8.02,4.29,11.51,4.29,9.53,0,16.76-6.51,16.76-16.28,0-3.81-1.11-6.91-3.81-9.61Z"/>
</svg>